<?xml version="1.0" encoding="utf-8"?>
<!-- Generator: Adobe Illustrator 16.0.4, SVG Export Plug-In . SVG Version: 6.00 Build 0)  -->
<!DOCTYPE svg PUBLIC "-//W3C//DTD SVG 1.1//EN" "http://www.w3.org/Graphics/SVG/1.1/DTD/svg11.dtd">
<svg version="1.1" id="Layer_1" xmlns="http://www.w3.org/2000/svg" xmlns:xlink="http://www.w3.org/1999/xlink" x="0px" y="0px"
	 width="200px" height="200px" viewBox="0 0 200 200" enable-background="new 0 0 200 200" xml:space="preserve">
<g>
	<path fill="#4373B5" d="M177.941,64.238c0-1.194-0.635-2.294-1.668-2.89c-1.031-0.596-2.299-0.592-3.332,0.004l-64.403,37.184
		c-3.427,1.978-5.538,5.632-5.538,9.59v74.37c0,1.189,0.634,2.29,1.666,2.884c1.029,0.597,2.3,0.599,3.334,0.002l61.941-35.762
		c4.953-2.86,8-8.14,8-13.858V64.238z"/>
	<path fill="#4373B5" d="M27.058,61.35c-1.032-0.594-2.3-0.596-3.332,0c-1.032,0.596-1.668,1.694-1.668,2.884c0,0,0,0.002,0,0.004
		v71.524c0,5.717,3.05,10.998,8,13.858L92,185.38c0,0,0.002,0.002,0.004,0.002c1.032,0.597,2.302,0.595,3.334-0.002
		c1.03-0.596,1.662-1.698,1.662-2.886v-74.37c0-3.958-2.11-7.612-5.538-9.59L27.058,61.35z"/>
	<path fill="#4373B5" d="M169.941,56.156c1.033-0.594,1.666-1.694,1.668-2.884c0-1.19-0.631-2.292-1.664-2.886
		c0,0-0.002-0.002-0.004-0.002L108,14.62c-4.952-2.858-11.05-2.858-16,0L30.058,50.38c-0.002,0-0.004,0.002-0.004,0.002
		c-1.032,0.596-1.666,1.698-1.666,2.888c0.002,1.192,0.638,2.288,1.67,2.884L94.462,93.34c3.426,1.978,7.647,1.978,11.074,0
		L169.941,56.156z"/>
</g>
<path display="none" fill="#FFFFFF" d="M60.327,142.091c3.359,2.008,7.382,2.561,11.325,1.563c3.925-0.991,7.29-3.401,9.478-6.774
	c2.177-3.355,2.927-7.273,2.122-11.025c-0.802-3.744-3.06-6.887-6.353-8.862L51.235,101.59c-3.306-1.979-7.295-2.578-11.24-1.676
	c-3.961,0.904-7.416,3.213-9.719,6.511c-4.792,6.853-3.059,15.873,3.895,20.031L60.327,142.091z M79.43,126.789
	c0.59,2.771,0.033,5.657-1.581,8.128c-1.614,2.484-4.094,4.246-6.983,4.966c-2.897,0.733-5.85,0.319-8.317-1.15l-11.379-6.811
	l12.358-18.4l11.219,6.731C77.179,121.709,78.844,124.032,79.43,126.789z M33.578,108.4c1.689-2.431,4.229-4.141,7.148-4.807
	c2.912-0.669,5.852-0.238,8.294,1.227l11.243,6.744l-12.409,18.382l-11.396-6.821C31.348,120.071,30.064,113.451,33.578,108.4z"/>
<path fill="#FCFCFC" d="M123.276,62.049c13.134-6.679,12.526-17.224-0.805-23.512c-13.037-6.15-33.907-6.149-47.045,0
	c-13.433,6.29-14.212,16.834-1.187,23.512C87.572,68.884,109.831,68.885,123.276,62.049z M117.674,59.296
	c-9.441,4.756-24.448,5.171-34.856,1.26l36.898-18.072C127.476,47.43,126.966,54.619,117.674,59.296z M80.628,41.092
	c9.289-4.387,23.582-4.766,33.689-1.176L77.422,57.818C69.969,52.691,71.191,45.551,80.628,41.092z"/>
<g>
	<path fill="#FFFFFF" d="M140.296,158.818c5.254-3.383,9.668-12.229,9.91-19.824l1.269-39.965c0.122-3.865-0.766-6.948-2.51-8.682
		c-1.759-1.748-4.184-1.919-6.825-0.465c-2.749,1.515-5.299,4.571-7.191,8.273c-1.894,3.716-3.113,8.064-3.2,12.134l-0.877,40.793
		c-0.081,3.76,0.871,6.629,2.671,8.081C135.324,160.603,137.723,160.474,140.296,158.818z M132.959,149.776l0.454-20.218
		l15.416-9.223l-0.612,19.902c-0.093,3.009-1.012,6.263-2.427,9.09c-1.414,2.833-3.331,5.256-5.418,6.59
		c-2.031,1.301-3.924,1.393-5.328,0.245C133.634,155.008,132.89,152.742,132.959,149.776z"/>
</g>
<path fill="#FFFFFF" d="M68.875,150.88c3.304,2.104,6.41,2.257,8.745,0.415c2.357-1.859,3.64-5.531,3.589-10.346
	c-0.051-4.84-1.439-10.223-3.905-15.12c-2.459-4.882-5.682-8.666-9.047-10.648l-25.175-14.813c-3.113-1.832-5.954-1.71-8.004,0.313
	c-2.031,2.007-3.048,5.646-2.88,10.245c0.346,9.425,5.662,20.226,11.951,24.225L68.875,150.88z M74.967,127.802
	c1.805,3.587,2.824,7.53,2.867,11.08c0.043,3.533-0.889,6.24-2.611,7.623c-1.71,1.375-3.994,1.281-6.428-0.253l-11.027-6.947
	l-0.602-25.981l11.174,6.646C70.811,121.438,73.168,124.221,74.967,127.802z M35.177,112.751c-0.119-3.396,0.64-6.07,2.147-7.537
	c1.518-1.475,3.613-1.546,5.903-0.183l10.751,6.396l0.643,25.899L44.01,130.64C39.358,127.707,35.42,119.721,35.177,112.751z"/>
</svg>
